<?xml version="1.0" encoding="UTF-8"?>
<svg version="1.1" xmlns="http://www.w3.org/2000/svg" width="239" height="218">
<path d="M0 0 C3.23118418 2.10052904 6.1246779 4.43907693 9 7 C10.36125 8.175625 10.36125 8.175625 11.75 9.375 C17.48150693 16.06175808 19.70162146 22.77423891 21.32421875 31.375 C21.54722656 32.24125 21.77023438 33.1075 22 34 C22.66 34.33 23.32 34.66 24 35 C24 35.66 24 36.32 24 37 C24.7425 37.268125 25.485 37.53625 26.25 37.8125 C28.89061949 38.95276751 30.85552844 40.09380306 33 42 C33 42.66 33 43.32 33 44 C33.99 44 34.98 44 36 44 C36 44.66 36 45.32 36 46 C36.66 46 37.32 46 38 46 C41 49.46153846 41 49.46153846 41 52 C41.5775 52.185625 42.155 52.37125 42.75 52.5625 C45.17737174 54.11332083 45.77640513 55.0883861 47.125 57.5625 C48.59475241 61.03531974 48.59475241 61.03531974 51 62 C51 62.99 51 63.98 51 65 C51.66 65 52.32 65 53 65 C55.80788736 70.92657142 58.37622122 76.64019979 60 83 C60.33 83.66 60.66 84.32 61 85 C61.31713725 88.63386433 61.51171036 92.26847692 61.71875 95.91015625 C61.65571925 98.86908486 61.65571925 98.86908486 63 100 C64.23091328 107.39427194 64.2136051 114.96289704 64.25 122.4375 C64.2809375 124.02014648 64.2809375 124.02014648 64.3125 125.63476562 C64.36115079 135.51695745 62.16307337 144.0791285 58 153 C57.34 153 56.68 153 56 153 C55.938125 153.9075 55.87625 154.815 55.8125 155.75 C54.8092713 159.76291479 53.43590857 160.82113115 50 163 C49.34 163 48.68 163 48 163 C48 163.66 48 164.32 48 165 C47.34 165 46.68 165 46 165 C46.33 165.845625 46.66 166.69125 47 167.5625 C48.40187483 172.38144472 48.81862126 176.15810216 46.75 180.8125 C44.84430979 183.19461276 43.87228746 184.04257085 41 185 C39.329375 185.185625 39.329375 185.185625 37.625 185.375 C33.95316372 185.73528886 33.95316372 185.73528886 31.3125 187.9375 C24.67904485 192.06776453 16.95870485 192.10761463 9.3125 191.9375 C2.04936741 191.81601391 -3.28460935 193.78928216 -9.8125 196.6875 C-13 198 -13 198 -17 198 C-17 198.66 -17 199.32 -17 200 C-17.69867188 200.27714844 -18.39734375 200.55429688 -19.1171875 200.83984375 C-20.02726563 201.20207031 -20.93734375 201.56429687 -21.875 201.9375 C-22.77992188 202.29714844 -23.68484375 202.65679687 -24.6171875 203.02734375 C-26.96137667 203.94901262 -26.96137667 203.94901262 -29 205 C-30.99960012 205.039992 -33.00047242 205.04346799 -35 205 C-35.33 205.99 -35.66 206.98 -36 208 C-37.85546875 208.87890625 -37.85546875 208.87890625 -40.1875 209.5625 C-41.41146484 209.93181641 -41.41146484 209.93181641 -42.66015625 210.30859375 C-43.43230469 210.53675781 -44.20445312 210.76492187 -45 211 C-46.03125 211.37125 -47.0625 211.7425 -48.125 212.125 C-51.39422138 213.11998042 -54.61974248 213.53604309 -58 214 C-58.33 214.33 -58.66 214.66 -59 215 C-60.35650952 215.09870264 -61.71803081 215.13079113 -63.078125 215.1328125 C-64.32529297 215.13474609 -64.32529297 215.13474609 -65.59765625 215.13671875 C-66.47292969 215.13285156 -67.34820312 215.12898437 -68.25 215.125 C-69.53970703 215.13080078 -69.53970703 215.13080078 -70.85546875 215.13671875 C-75.03692245 215.13027583 -78.93066026 215.05830144 -83 214 C-84.11375 213.72542969 -85.2275 213.45085937 -86.375 213.16796875 C-88.169375 212.68263672 -88.169375 212.68263672 -90 212.1875 C-91.19625 211.87167969 -92.3925 211.55585938 -93.625 211.23046875 C-97.11449544 209.95825687 -99.20280739 208.39412493 -102 206 C-102.99 205.67 -103.98 205.34 -105 205 C-105.33 204.34 -105.66 203.68 -106 203 C-106.99 202.67 -107.98 202.34 -109 202 C-109 201.34 -109 200.68 -109 200 C-109.66 200 -110.32 200 -111 200 C-111 199.34 -111 198.68 -111 198 C-111.99 198 -112.98 198 -114 198 C-114 197.01 -114 196.02 -114 195 C-117.49141125 194.12714719 -119.56818329 194.11518538 -123 195 C-130.30867028 195.76999808 -135.56927678 194.45097001 -142 191 C-142.66 190.67 -143.32 190.34 -144 190 C-144 189.34 -144 188.68 -144 188 C-144.99 187.67 -145.98 187.34 -147 187 C-147 186.34 -147 185.68 -147 185 C-147.66 185 -148.32 185 -149 185 C-153.24509333 178.01613678 -154.13769676 173.12410887 -154 165 C-155.11375 164.814375 -155.11375 164.814375 -156.25 164.625 C-158.80141485 164.04513299 -160.7267573 163.26291261 -163 162 C-163 161.34 -163 160.68 -163 160 C-163.53625 159.9175 -164.0725 159.835 -164.625 159.75 C-167.94568746 158.70136186 -170.28517358 157.17186114 -173 155 C-173.875 152.25 -173.875 152.25 -174 150 C-173.34 150 -172.68 150 -172 150 C-172 149.34 -172 148.68 -172 148 C-165.14502828 147.58030785 -159.08581491 149.03613345 -152.48828125 150.734375 C-148.90279333 151.36236928 -148.90279333 151.36236928 -146.04296875 149.078125 C-145.36878906 148.39234375 -144.69460937 147.7065625 -144 147 C-144.34786708 145.02463255 -144.34786708 145.02463255 -145 143 C-145.66 142.67 -146.32 142.34 -147 142 C-147.433125 140.2984375 -147.433125 140.2984375 -147.875 138.5625 C-148.56828404 134.98097955 -148.56828404 134.98097955 -150.8125 133.9375 C-151.534375 133.628125 -152.25625 133.31875 -153 133 C-157.80321824 127.96247843 -161 123.18638263 -161 116 C-161.66 116 -162.32 116 -163 116 C-163.144375 114.7625 -163.28875 113.525 -163.4375 112.25 C-163.70227773 110.11686112 -163.97853159 108.08587365 -164.5 106 C-167.06224092 95.75103633 -166.90789393 84.40542422 -164.5 74.171875 C-163.90491588 71.76574291 -163.90491588 71.76574291 -163.5625 68.3125 C-162.91906967 64.5234103 -161.5870722 61.49155884 -160 58 C-159.31163487 56.00736409 -158.63718601 54.00958663 -158 52 C-157.34 52 -156.68 52 -156 52 C-155.67 50.35 -155.34 48.7 -155 47 C-154.34 47 -153.68 47 -153 47 C-152.67 45.35 -152.34 43.7 -152 42 C-151.34 42 -150.68 42 -150 42 C-150 41.01 -150 40.02 -150 39 C-148.125 36.8125 -148.125 36.8125 -146 35 C-145.34 35 -144.68 35 -144 35 C-144 34.01 -144 33.02 -144 32 C-143.01 32 -142.02 32 -141 32 C-141 31.34 -141 30.68 -141 30 C-136.61538462 27 -136.61538462 27 -134 27 C-133.505 25.515 -133.505 25.515 -133 24 C-131.68352881 23.30062468 -130.34977849 22.63270867 -129 22 C-128.67 21.34 -128.34 20.68 -128 20 C-126.68158044 19.61185215 -125.34220507 19.29559166 -124 19 C-120.90978374 17.98872056 -117.83021406 16.95109197 -114.75195312 15.90429688 C-110.53017261 14.47992716 -106.29287472 13.19400785 -102 12 C-102 12.66 -102 13.32 -102 14 C-101.05253906 13.67515625 -100.10507813 13.3503125 -99.12890625 13.015625 C-94.40908471 11.67151481 -89.81400355 11.70655676 -84.9375 11.75 C-84.06544922 11.74226562 -83.19339844 11.73453125 -82.29492188 11.7265625 C-77.429644 11.74129461 -73.58243083 12.20571486 -69 14 C-63.05904511 15.42471175 -57.06728036 16.32585774 -51 17 C-51 16.34 -51 15.68 -51 15 C-50.34 15 -49.68 15 -49 15 C-48.92265625 14.43152344 -48.8453125 13.86304687 -48.765625 13.27734375 C-46.77700648 7.36221824 -40.19238922 3.22773796 -34.97265625 0.3046875 C-24.11141026 -4.39424463 -10.86616824 -5.31193473 0 0 Z M-159 156 C-157.70532323 158.05990478 -157.70532323 158.05990478 -156 160 C-155.01 160 -154.02 160 -153 160 C-152.67 159.01 -152.34 158.02 -152 157 C-153.12534105 155.64381501 -153.12534105 155.64381501 -156.0625 155.9375 C-157.031875 155.958125 -158.00125 155.97875 -159 156 Z " fill="#7F6277" transform="translate(174,3)"/>
<path d="M0 0 C3.23118418 2.10052904 6.1246779 4.43907693 9 7 C10.36125 8.175625 10.36125 8.175625 11.75 9.375 C18.65721845 17.43342153 21.35982287 25.62133283 20.6875 36.125 C20.31565672 40.46156185 19.76193832 44.71491097 19 49 C18.34 49 17.68 49 17 49 C16.67 50.98 16.34 52.96 16 55 C15.34 55 14.68 55 14 55 C13.7525 55.556875 13.505 56.11375 13.25 56.6875 C10.45897288 61.85090017 7.08947783 65.07625742 2 68 C1.01 68 0.02 68 -1 68 C-1 68.66 -1 69.32 -1 70 C-7.81831049 72.59745162 -14.77613341 72.41638909 -22 72 C-23 71 -23 71 -23.6875 67.0625 C-25.97152194 56.69402629 -32.58451112 49.18825173 -41 43 C-43.676512 41.75894308 -43.676512 41.75894308 -46 41 C-46 40.34 -46 39.68 -46 39 C-47.65 38.67 -49.3 38.34 -51 38 C-51.01417969 37.40832031 -51.02835937 36.81664062 -51.04296875 36.20703125 C-51.31496119 31.70077808 -51.52197715 29.57362742 -54.5 26 C-55.325 25.34 -56.15 24.68 -57 24 C-57.33 23.67 -57.66 23.34 -58 23 C-62.47672881 22.74172718 -66.09289216 22.6768548 -70 25 C-72.55565154 28.26555474 -74.12887408 30.97539827 -75 35 C-75.83917969 35.09474609 -75.83917969 35.09474609 -76.6953125 35.19140625 C-85.62855237 36.55580784 -95.6876126 40.36285955 -102 47 C-102.66 47 -103.32 47 -104 47 C-104 47.66 -104 48.32 -104 49 C-105.46875 50.12109375 -105.46875 50.12109375 -107.5 51.4375 C-111.28439865 54.09912767 -113.27403146 56.82361088 -115.6875 60.75 C-118.08157632 64.29093923 -119.19063706 65.75367215 -123.32421875 67.01171875 C-126.875 67.4375 -126.875 67.4375 -130.2421875 67.55859375 C-131.15226562 67.70425781 -132.06234375 67.84992188 -133 68 C-134.40887357 69.84341927 -134.40887357 69.84341927 -135 72 C-135.33 72.66 -135.66 73.32 -136 74 C-136.39670629 80.78676102 -136.39670629 80.78676102 -134 87 C-131.60470331 88.32481546 -131.60470331 88.32481546 -129 89 C-128.01 89.33 -127.02 89.66 -126 90 C-125.84144531 90.96679688 -125.68289062 91.93359375 -125.51953125 92.9296875 C-123.80043684 102.75977043 -121.7873126 112.07794435 -114 119 C-114 119.66 -114 120.32 -114 121 C-113.195625 121.37125 -113.195625 121.37125 -112.375 121.75 C-110 123 -110 123 -107.1875 124.9375 C-103.84468353 127.10049889 -100.68499939 128.52600024 -97 130 C-97.12375 130.680625 -97.2475 131.36125 -97.375 132.0625 C-96.81206085 136.47219002 -94.12959936 138.977005 -91 142 C-88.10283387 144.18028437 -88.10283387 144.18028437 -84.625 144.8125 C-80.43681827 146.18449057 -78.77104265 147.61317009 -76 151 C-75.649375 151.99 -75.29875 152.98 -74.9375 154 C-71.77275326 158.90025302 -66.44591978 160.34794917 -61 162 C-59.68 162 -58.36 162 -57 162 C-56.773125 161.278125 -56.54625 160.55625 -56.3125 159.8125 C-54.74537323 156.45437121 -52.671784 154.5381948 -50 152 C-49.34 151.01 -48.68 150.02 -48 149 C-47.34 149 -46.68 149 -46 149 C-45.38125 150.86591797 -45.38125 150.86591797 -44.75 152.76953125 C-39.80830717 167.2028725 -34.01254773 179.55480612 -19.96875 187.08984375 C-14.58308384 189.40867224 -8.54361691 190.06178227 -2.875 188.36328125 C-2.25625 188.24339844 -1.6375 188.12351563 -1 188 C1.25 189.9375 1.25 189.9375 3 192 C2.14728516 192.27263672 2.14728516 192.27263672 1.27734375 192.55078125 C-2.50218706 193.78117943 -6.19434738 195.03573468 -9.8125 196.6875 C-13 198 -13 198 -17 198 C-17 198.66 -17 199.32 -17 200 C-17.69867188 200.27714844 -18.39734375 200.55429688 -19.1171875 200.83984375 C-20.02726563 201.20207031 -20.93734375 201.56429687 -21.875 201.9375 C-22.77992188 202.29714844 -23.68484375 202.65679687 -24.6171875 203.02734375 C-26.96137667 203.94901262 -26.96137667 203.94901262 -29 205 C-30.99960012 205.039992 -33.00047242 205.04346799 -35 205 C-35.33 205.99 -35.66 206.98 -36 208 C-37.85546875 208.87890625 -37.85546875 208.87890625 -40.1875 209.5625 C-41.41146484 209.93181641 -41.41146484 209.93181641 -42.66015625 210.30859375 C-43.43230469 210.53675781 -44.20445312 210.76492187 -45 211 C-46.03125 211.37125 -47.0625 211.7425 -48.125 212.125 C-51.39422138 213.11998042 -54.61974248 213.53604309 -58 214 C-58.33 214.33 -58.66 214.66 -59 215 C-60.35650952 215.09870264 -61.71803081 215.13079113 -63.078125 215.1328125 C-64.32529297 215.13474609 -64.32529297 215.13474609 -65.59765625 215.13671875 C-66.47292969 215.13285156 -67.34820312 215.12898437 -68.25 215.125 C-69.53970703 215.13080078 -69.53970703 215.13080078 -70.85546875 215.13671875 C-75.03692245 215.13027583 -78.93066026 215.05830144 -83 214 C-84.11375 213.72542969 -85.2275 213.45085937 -86.375 213.16796875 C-88.169375 212.68263672 -88.169375 212.68263672 -90 212.1875 C-91.19625 211.87167969 -92.3925 211.55585938 -93.625 211.23046875 C-97.11449544 209.95825687 -99.20280739 208.39412493 -102 206 C-102.99 205.67 -103.98 205.34 -105 205 C-105.33 204.34 -105.66 203.68 -106 203 C-106.99 202.67 -107.98 202.34 -109 202 C-109 201.34 -109 200.68 -109 200 C-109.66 200 -110.32 200 -111 200 C-111 199.34 -111 198.68 -111 198 C-111.99 198 -112.98 198 -114 198 C-114 197.01 -114 196.02 -114 195 C-117.49141125 194.12714719 -119.56818329 194.11518538 -123 195 C-130.30867028 195.76999808 -135.56927678 194.45097001 -142 191 C-142.66 190.67 -143.32 190.34 -144 190 C-144 189.34 -144 188.68 -144 188 C-144.99 187.67 -145.98 187.34 -147 187 C-147 186.34 -147 185.68 -147 185 C-147.66 185 -148.32 185 -149 185 C-153.24509333 178.01613678 -154.13769676 173.12410887 -154 165 C-155.11375 164.814375 -155.11375 164.814375 -156.25 164.625 C-158.80141485 164.04513299 -160.7267573 163.26291261 -163 162 C-163 161.34 -163 160.68 -163 160 C-163.53625 159.9175 -164.0725 159.835 -164.625 159.75 C-167.94568746 158.70136186 -170.28517358 157.17186114 -173 155 C-173.875 152.25 -173.875 152.25 -174 150 C-173.34 150 -172.68 150 -172 150 C-172 149.34 -172 148.68 -172 148 C-165.14502828 147.58030785 -159.08581491 149.03613345 -152.48828125 150.734375 C-148.90279333 151.36236928 -148.90279333 151.36236928 -146.04296875 149.078125 C-145.36878906 148.39234375 -144.69460937 147.7065625 -144 147 C-144.34786708 145.02463255 -144.34786708 145.02463255 -145 143 C-145.66 142.67 -146.32 142.34 -147 142 C-147.433125 140.2984375 -147.433125 140.2984375 -147.875 138.5625 C-148.56828404 134.98097955 -148.56828404 134.98097955 -150.8125 133.9375 C-151.534375 133.628125 -152.25625 133.31875 -153 133 C-157.80321824 127.96247843 -161 123.18638263 -161 116 C-161.66 116 -162.32 116 -163 116 C-163.144375 114.7625 -163.28875 113.525 -163.4375 112.25 C-163.70227773 110.11686112 -163.97853159 108.08587365 -164.5 106 C-167.06224092 95.75103633 -166.90789393 84.40542422 -164.5 74.171875 C-163.90491588 71.76574291 -163.90491588 71.76574291 -163.5625 68.3125 C-162.91906967 64.5234103 -161.5870722 61.49155884 -160 58 C-159.31163487 56.00736409 -158.63718601 54.00958663 -158 52 C-157.34 52 -156.68 52 -156 52 C-155.67 50.35 -155.34 48.7 -155 47 C-154.34 47 -153.68 47 -153 47 C-152.67 45.35 -152.34 43.7 -152 42 C-151.34 42 -150.68 42 -150 42 C-150 41.01 -150 40.02 -150 39 C-148.125 36.8125 -148.125 36.8125 -146 35 C-145.34 35 -144.68 35 -144 35 C-144 34.01 -144 33.02 -144 32 C-143.01 32 -142.02 32 -141 32 C-141 31.34 -141 30.68 -141 30 C-136.61538462 27 -136.61538462 27 -134 27 C-133.505 25.515 -133.505 25.515 -133 24 C-131.68352881 23.30062468 -130.34977849 22.63270867 -129 22 C-128.67 21.34 -128.34 20.68 -128 20 C-126.68158044 19.61185215 -125.34220507 19.29559166 -124 19 C-120.90978374 17.98872056 -117.83021406 16.95109197 -114.75195312 15.90429688 C-110.53017261 14.47992716 -106.29287472 13.19400785 -102 12 C-102 12.66 -102 13.32 -102 14 C-101.05253906 13.67515625 -100.10507813 13.3503125 -99.12890625 13.015625 C-94.40908471 11.67151481 -89.81400355 11.70655676 -84.9375 11.75 C-84.06544922 11.74226562 -83.19339844 11.73453125 -82.29492188 11.7265625 C-77.429644 11.74129461 -73.58243083 12.20571486 -69 14 C-63.05904511 15.42471175 -57.06728036 16.32585774 -51 17 C-51 16.34 -51 15.68 -51 15 C-50.34 15 -49.68 15 -49 15 C-48.92265625 14.43152344 -48.8453125 13.86304687 -48.765625 13.27734375 C-46.77700648 7.36221824 -40.19238922 3.22773796 -34.97265625 0.3046875 C-24.11141026 -4.39424463 -10.86616824 -5.31193473 0 0 Z M-159 156 C-157.70532323 158.05990478 -157.70532323 158.05990478 -156 160 C-155.01 160 -154.02 160 -153 160 C-152.67 159.01 -152.34 158.02 -152 157 C-153.12534105 155.64381501 -153.12534105 155.64381501 -156.0625 155.9375 C-157.031875 155.958125 -158.00125 155.97875 -159 156 Z " fill="#7F6277" transform="translate(174,3)"/>
<path d="M0 0 C1.27617188 0.00483398 1.27617188 0.00483398 2.578125 0.00976562 C3.46757813 0.01814453 4.35703125 0.02652344 5.2734375 0.03515625 C6.170625 0.03966797 7.0678125 0.04417969 7.9921875 0.04882812 C10.21100398 0.06063034 12.42968768 0.0770947 14.6484375 0.09765625 C14.6484375 0.75765625 14.6484375 1.41765625 14.6484375 2.09765625 C15.5765625 2.13890625 16.5046875 2.18015625 17.4609375 2.22265625 C26.65403792 3.58115085 35.09504726 9.86777084 40.6484375 17.09765625 C45.39667095 25.60030684 47.536115 34.9969159 44.9765625 44.625 C44.24860366 46.46893347 43.45357715 48.28609205 42.6484375 50.09765625 C42.6484375 51.08765625 42.6484375 52.07765625 42.6484375 53.09765625 C44.6284375 53.59265625 44.6284375 53.59265625 46.6484375 54.09765625 C46.9371875 53.16953125 47.2259375 52.24140625 47.5234375 51.28515625 C48.6484375 48.09765625 48.6484375 48.09765625 50.6484375 45.09765625 C52.2984375 45.75765625 53.9484375 46.41765625 55.6484375 47.09765625 C55.70451172 48.40089844 55.70451172 48.40089844 55.76171875 49.73046875 C56.11232748 58.37071511 56.11232748 58.37071511 59.6484375 66.09765625 C60.3703125 66.71640625 61.0921875 67.33515625 61.8359375 67.97265625 C64.06840879 70.59003639 64.1258748 72.61652675 64.1796875 76 C63.39131623 79.11290715 61.86155532 80.8017347 59.6484375 83.09765625 C57.1953125 84.328125 57.1953125 84.328125 54.3984375 85.28515625 C48.93539162 87.39511493 44.14365895 90.04687194 39.2109375 93.16015625 C38.53708008 93.58385498 37.86322266 94.00755371 37.16894531 94.4440918 C34.24273653 96.31775746 31.50480603 98.21409822 28.80078125 100.40625 C26.6484375 102.09765625 26.6484375 102.09765625 24.6484375 102.09765625 C24.1534375 103.58265625 24.1534375 103.58265625 23.6484375 105.09765625 C22.00413921 106.78639504 20.33459532 108.4507114 18.6484375 110.09765625 C18.0709375 111.02578125 17.4934375 111.95390625 16.8984375 112.91015625 C14.34225632 115.3953324 13.59015279 115.52582613 10.1484375 115.72265625 C6.57252713 115.52824926 5.86195916 115.29034653 3.0859375 112.78515625 C1.6484375 110.09765625 1.6484375 110.09765625 1.6484375 107.09765625 C0.6584375 106.76765625 -0.3315625 106.43765625 -1.3515625 106.09765625 C-1.6815625 105.10765625 -2.0115625 104.11765625 -2.3515625 103.09765625 C-6.19664972 100.86214043 -10.13711194 99.46980294 -14.3515625 98.09765625 C-15.3515625 97.09765625 -15.3515625 97.09765625 -15.4140625 94.53515625 C-15.3934375 93.73078125 -15.3728125 92.92640625 -15.3515625 92.09765625 C-13.711875 91.88109375 -13.711875 91.88109375 -12.0390625 91.66015625 C-8.42033263 91.21477521 -8.42033263 91.21477521 -5.3515625 90.09765625 C-5.6815625 89.10765625 -6.0115625 88.11765625 -6.3515625 87.09765625 C-7.22296875 87.09507812 -8.094375 87.0925 -8.9921875 87.08984375 C-20.16416057 86.72711735 -28.65080832 83.93725523 -36.8515625 76.16015625 C-40.64363518 72.02047691 -44.11004635 67.93547099 -44.6015625 62.16015625 C-44.5190625 61.47953125 -44.4365625 60.79890625 -44.3515625 60.09765625 C-45.0115625 60.09765625 -45.6715625 60.09765625 -46.3515625 60.09765625 C-47.29741097 43.82555941 -45.54831937 31.6017981 -34.8671875 18.5390625 C-33.3515625 17.09765625 -33.3515625 17.09765625 -31.3515625 17.09765625 C-31.3515625 16.43765625 -31.3515625 15.77765625 -31.3515625 15.09765625 C-27.89002404 12.09765625 -27.89002404 12.09765625 -25.3515625 12.09765625 C-25.0215625 11.10765625 -24.6915625 10.11765625 -24.3515625 9.09765625 C-19.49980447 5.54547626 -13.91262876 3.40894972 -8.19921875 1.67578125 C-2.78419162 -0.01856128 -2.78419162 -0.01856128 0 0 Z " fill="#FCA2AD" transform="translate(100.3515625,42.90234375)"/>
<path d="M0 0 C4.83839688 0.50052382 6.22860084 1.97860084 9.625 5.375 C10.82772819 7.78045638 10.72571472 9.32496953 10.6875 12 C10.67847656 12.81726562 10.66945313 13.63453125 10.66015625 14.4765625 C10.64855469 15.10304688 10.63695313 15.72953125 10.625 16.375 C12.275 16.705 13.925 17.035 15.625 17.375 C15.625 18.035 15.625 18.695 15.625 19.375 C16.33785156 19.44847656 17.05070312 19.52195312 17.78515625 19.59765625 C25.11184201 21.60317271 31.22772515 29.21499667 35.1875 35.4375 C38.87057174 42.20925727 39.94961128 48.74663492 39.625 56.375 C41.275 56.705 42.925 57.035 44.625 57.375 C44.625 58.365 44.625 59.355 44.625 60.375 C46.11 60.87 46.11 60.87 47.625 61.375 C49.97589172 64.90133758 49.73846855 66.06614129 49.5 70.1875 C49.40985043 75.53208143 50.00218243 78.24901333 53.625 82.375 C54.32625 83.09171875 55.0275 83.8084375 55.75 84.546875 C58.13136895 88.13877316 58.0814368 91.03891425 57.875 95.1875 C57.85695312 95.88037109 57.83890625 96.57324219 57.8203125 97.28710938 C57.77351064 98.98367664 57.70177624 100.67952476 57.625 102.375 C56.02467863 103.21569415 54.41958829 104.04731505 52.8125 104.875 C51.91917969 105.3390625 51.02585937 105.803125 50.10546875 106.28125 C47.625 107.375 47.625 107.375 44.625 107.375 C46.91337483 109.83940366 49.04164609 111.64742244 51.875 113.5 C52.7825 114.11875 53.69 114.7375 54.625 115.375 C54.625 116.035 54.625 116.695 54.625 117.375 C55.615 117.705 56.605 118.035 57.625 118.375 C59.46999398 120.25117698 60.9933599 122.30237609 62.625 124.375 C63.3675 123.88 64.11 123.385 64.875 122.875 C69.70909889 120.45218194 75.37307614 120.65400911 80.625 121.375 C83.43359375 122.7109375 83.43359375 122.7109375 85.625 124.375 C85.955 125.365 86.285 126.355 86.625 127.375 C87.615 127.705 88.605 128.035 89.625 128.375 C89.686875 129.15875 89.74875 129.9425 89.8125 130.75 C90.080625 131.61625 90.34875 132.4825 90.625 133.375 C92.91481608 134.48017941 92.91481608 134.48017941 95.625 135.375 C105.61600218 139.20821963 105.61600218 139.20821963 108.25 144.75 C110.03762716 149.85024432 110.62086458 154.1343047 108.375 159.1875 C106.46930979 161.56961276 105.49728746 162.41757085 102.625 163.375 C100.954375 163.560625 100.954375 163.560625 99.25 163.75 C95.57816372 164.11028886 95.57816372 164.11028886 92.9375 166.3125 C84.42374363 171.61351812 73.21880839 170.95906424 63.625 169.375 C62.635 168.715 61.645 168.055 60.625 167.375 C58.65490887 167.69932853 58.65490887 167.69932853 56.625 168.375 C47.98613312 169.3825925 41.59612653 166.58561824 34.5625 161.75 C23.88174367 153.19265447 17.42915688 140.8958079 15.625 127.375 C14.965 127.375 14.305 127.375 13.625 127.375 C13.398125 127.931875 13.17125 128.48875 12.9375 129.0625 C11.625 131.375 11.625 131.375 9.125 133.8125 C6.6731606 136.32563538 5.66339869 138.07100416 4.625 141.375 C-9.26845911 138.76212523 -9.26845911 138.76212523 -13.28125 134.21484375 C-14.8125 131.8125 -14.8125 131.8125 -16.05859375 129.49609375 C-18.16772863 126.09769542 -20.4621552 124.65282233 -24.25 123.5 C-29.22872522 121.70765892 -33.85877246 118.11142831 -36.375 113.375 C-36.0625 110.625 -36.0625 110.625 -35.375 108.375 C-35.95378906 108.24738281 -36.53257813 108.11976563 -37.12890625 107.98828125 C-39.35967529 107.37918431 -41.24455246 106.59033135 -43.3125 105.5625 C-43.96089844 105.24667969 -44.60929687 104.93085938 -45.27734375 104.60546875 C-53.32527751 99.88461375 -60.01910721 91.47939196 -62.921875 82.56640625 C-63.88863758 77.89094239 -64.14492698 73.13513141 -64.375 68.375 C-65.14328125 68.26027344 -65.9115625 68.14554687 -66.703125 68.02734375 C-70.37246949 67.13146578 -71.92239638 65.16824302 -74.375 62.375 C-75.98365775 59.15768449 -75.84196133 55.8642388 -75.375 52.375 C-73.67337607 48.97175214 -72.42245724 46.98601672 -69.125 45.0625 C-66.375 44.375 -66.375 44.375 -62.625 44.5 C-59.21727935 44.18435102 -58.3880827 43.38948052 -56.03515625 40.78515625 C-54.49658245 38.6731373 -52.99960841 36.53003382 -51.55078125 34.35546875 C-49.39512375 31.40256629 -47.38147527 29.43416134 -44.375 27.375 C-43.715 27.375 -43.055 27.375 -42.375 27.375 C-42.375 26.715 -42.375 26.055 -42.375 25.375 C-35.29277864 18.09042946 -25.18016297 13.86332256 -15.10546875 13.3828125 C-14.53441406 13.38023438 -13.96335938 13.37765625 -13.375 13.375 C-13.2821875 12.075625 -13.2821875 12.075625 -13.1875 10.75 C-12.11890735 6.31123054 -10.59635962 4.59635962 -7.375 1.375 C-4.91938921 0.2290483 -2.72572762 0.30285862 0 0 Z M-33.375 26.375 C-34.68752882 27.08174629 -36.01052891 27.77463272 -37.375 28.375 C-37.375 29.035 -37.375 29.695 -37.375 30.375 C-39.375 31.375 -41.375 32.375 -43.375 33.375 C-43.375 34.035 -43.375 34.695 -43.375 35.375 C-44.365 35.705 -45.355 36.035 -46.375 36.375 C-57.66187714 48.89220024 -59.13689337 62.34137722 -58.375 78.375 C-57.715 78.375 -57.055 78.375 -56.375 78.375 C-56.33375 79.365 -56.2925 80.355 -56.25 81.375 C-55.16497781 88.74720557 -49.0002117 94.2893734 -43.48828125 98.8359375 C-35.64598475 104.54733274 -27.91765853 105.10351612 -18.375 105.375 C-18.045 106.365 -17.715 107.355 -17.375 108.375 C-22.325 109.365 -22.325 109.365 -27.375 110.375 C-27.375 112.025 -27.375 113.675 -27.375 115.375 C-24.68087786 118.06912214 -22.01604358 118.37057418 -18.375 119.375 C-15.56414134 120.43856814 -14.65892242 120.89233189 -13.125 123.5 C-12.8775 124.11875 -12.63 124.7375 -12.375 125.375 C-11.715 125.375 -11.055 125.375 -10.375 125.375 C-10.2203125 126.24125 -10.2203125 126.24125 -10.0625 127.125 C-9.18743781 129.98883988 -8.65928436 131.37625119 -6.375 133.375 C-3.15310102 134.3093507 -0.58630112 134.37253042 2.625 133.375 C4.8361673 131.26125961 6.43922132 129.09248929 8.1171875 126.5390625 C9.625 124.375 9.625 124.375 12.625 122.375 C12.625 121.715 12.625 121.055 12.625 120.375 C13.346875 120.1275 14.06875 119.88 14.8125 119.625 C17.90432827 118.2508541 19.98763201 116.48947448 22.625 114.375 C30.11644538 109.34677444 37.61453675 105.25954463 45.9453125 101.796875 C48.80510622 100.27943343 50.04336521 99.17327693 51.625 96.375 C52.42348149 91.08926218 52.42348149 91.08926218 50.3125 86.40625 C49.25758823 85.20933087 48.1659785 84.04344433 47.03515625 82.91796875 C44.12070637 79.72902775 44.34764789 75.80177676 44.0625 71.6875 C43.97871094 70.50800781 43.89492187 69.32851562 43.80859375 68.11328125 C43.74800781 67.20964844 43.68742187 66.30601563 43.625 65.375 C41.975 64.715 40.325 64.055 38.625 63.375 C37.965 64.48875 37.305 65.6025 36.625 66.75 C36.25375 67.37648437 35.8825 68.00296875 35.5 68.6484375 C34.47431652 70.34972667 34.47431652 70.34972667 34.625 72.375 C32.645 71.88 32.645 71.88 30.625 71.375 C31.03739753 68.41948438 31.43952763 65.79873304 32.640625 63.0546875 C35.06339663 56.45936472 34.42149688 48.60289478 32.0625 42.0625 C27.64952999 32.56000708 19.48854423 25.4753231 9.99609375 21.1875 C7.40261098 20.29879421 5.34731545 20.21943912 2.625 20.375 C2.625 19.715 2.625 19.055 2.625 18.375 C-16.62452996 17.78203546 -16.62452996 17.78203546 -33.375 26.375 Z " fill="#5F363D" transform="translate(112.375,24.625)"/>
<path d="M0 0 C3.23118418 2.10052904 6.1246779 4.43907693 9 7 C10.36125 8.175625 10.36125 8.175625 11.75 9.375 C18.65721845 17.43342153 21.35982287 25.62133283 20.6875 36.125 C20.31565672 40.46156185 19.76193832 44.71491097 19 49 C18.34 49 17.68 49 17 49 C16.67 50.98 16.34 52.96 16 55 C15.34 55 14.68 55 14 55 C13.7525 55.556875 13.505 56.11375 13.25 56.6875 C10.45897288 61.85090017 7.08947783 65.07625742 2 68 C1.01 68 0.02 68 -1 68 C-1 68.66 -1 69.32 -1 70 C-7.81831049 72.59745162 -14.77613341 72.41638909 -22 72 C-23 71 -23 71 -23.6875 67.0625 C-25.97152194 56.69402629 -32.58451112 49.18825173 -41 43 C-43.676512 41.75894308 -43.676512 41.75894308 -46 41 C-46 40.34 -46 39.68 -46 39 C-47.65 38.67 -49.3 38.34 -51 38 C-51.07347656 37.07767578 -51.07347656 37.07767578 -51.1484375 36.13671875 C-51.22320312 35.32847656 -51.29796875 34.52023438 -51.375 33.6875 C-51.44460937 32.88699219 -51.51421875 32.08648437 -51.5859375 31.26171875 C-51.89564426 28.72775559 -51.89564426 28.72775559 -54 26 C-54 25.01 -54 24.02 -54 23 C-53.34 23 -52.68 23 -52 23 C-51.67 20.36 -51.34 17.72 -51 15 C-50.34 15 -49.68 15 -49 15 C-48.88398437 14.14728516 -48.88398437 14.14728516 -48.765625 13.27734375 C-46.77700648 7.36221824 -40.19238922 3.22773796 -34.97265625 0.3046875 C-24.11141026 -4.39424463 -10.86616824 -5.31193473 0 0 Z " fill="#85C1C5" transform="translate(174,3)"/>
<path d="M0 0 C1.03833984 0.495 1.03833984 0.495 2.09765625 1 C7.63273104 3.9096081 11.11657692 9.17758994 13 15 C13.83031241 20.96902369 13.47703379 25.90862909 10 31 C6.20261817 34.66643762 1.7817406 35.80202882 -3.375 36.375 C-6.75891992 36.02493932 -8.08212734 35.57576338 -10.9375 34 C-15.34082059 31.63682795 -18.00923542 31.20781515 -23 32 C-26.31578438 34.09957003 -29.22840225 36.45680451 -31 40 C-31.09252952 41.37790079 -31.13169243 42.75964979 -31.140625 44.140625 C-31.15996094 44.96433594 -31.17929688 45.78804687 -31.19921875 46.63671875 C-31.23276483 48.36305158 -31.25127816 50.08974952 -31.25390625 51.81640625 C-31.37993044 56.08133024 -31.60883073 59.09334911 -34.3359375 62.4921875 C-38.37105894 66.29064493 -42.01045199 67.78683414 -47.5 68.375 C-55.0596658 67.56503581 -58.65663105 64.80555571 -63.51953125 59.23046875 C-69.06213187 50.88000714 -67.91114532 39.09284963 -66.48828125 29.578125 C-63.52265227 18.64146397 -54.71395588 10.76252069 -46 4 C-45.34 4 -44.68 4 -44 4 C-44 3.34 -44 2.68 -44 2 C-30.14989007 -4.95610903 -14.20108501 -7.95725418 0 0 Z " fill="#5B3339" transform="translate(124,50)"/>
<path d="M0 0 C6.81971541 4.14951306 12.57744106 9.72140311 14.61328125 17.6796875 C14.76279324 21.02050718 14.73006673 24.33832516 14.61328125 27.6796875 C15.27328125 27.6796875 15.93328125 27.6796875 16.61328125 27.6796875 C16.61328125 28.3396875 16.61328125 28.9996875 16.61328125 29.6796875 C17.47179687 29.91945312 18.3303125 30.15921875 19.21484375 30.40625 C22.99711327 31.82351421 25.75061364 33.64842095 28.98828125 36.0546875 C30.04789062 36.82554687 31.1075 37.59640625 32.19921875 38.390625 C32.99585937 39.14601562 33.7925 39.90140625 34.61328125 40.6796875 C34.61328125 41.9996875 34.61328125 43.3196875 34.61328125 44.6796875 C29.78989481 47.09138072 22.72352312 45.62602859 17.61328125 44.6796875 C16.58203125 44.3084375 15.55078125 43.9371875 14.48828125 43.5546875 C11.23721051 42.56523119 9.79262403 42.53838496 6.61328125 43.6796875 C4.90578145 44.96031235 3.23954529 46.29736307 1.61328125 47.6796875 C-4.49116316 51.69968748 -10.15259383 52.48230574 -17.38671875 51.6796875 C-20.55313377 50.62581261 -23.44998836 49.25564842 -26.38671875 47.6796875 C-27.04671875 47.3496875 -27.70671875 47.0196875 -28.38671875 46.6796875 C-28.38671875 46.0196875 -28.38671875 45.3596875 -28.38671875 44.6796875 C-29.87171875 44.1846875 -29.87171875 44.1846875 -31.38671875 43.6796875 C-31.38671875 43.0196875 -31.38671875 42.3596875 -31.38671875 41.6796875 C-32.04671875 41.6796875 -32.70671875 41.6796875 -33.38671875 41.6796875 C-37.63181208 34.69582428 -38.52441551 29.80379637 -38.38671875 21.6796875 C-39.12921875 21.5559375 -39.87171875 21.4321875 -40.63671875 21.3046875 C-43.1881336 20.72482049 -45.11347605 19.94260011 -47.38671875 18.6796875 C-47.38671875 18.0196875 -47.38671875 17.3596875 -47.38671875 16.6796875 C-47.92296875 16.5971875 -48.45921875 16.5146875 -49.01171875 16.4296875 C-52.33240621 15.38104936 -54.67189233 13.85154864 -57.38671875 11.6796875 C-58.26171875 8.9296875 -58.26171875 8.9296875 -58.38671875 6.6796875 C-57.72671875 6.6796875 -57.06671875 6.6796875 -56.38671875 6.6796875 C-56.38671875 6.0196875 -56.38671875 5.3596875 -56.38671875 4.6796875 C-51.52510649 4.38203777 -47.63980101 4.83910381 -42.91357422 6.109375 C-36.69946735 7.80786285 -36.69946735 7.80786285 -30.55859375 6.390625 C-28.19242311 4.55644319 -28.19242311 4.55644319 -26.21875 2.51171875 C-19.97092583 -3.73610542 -7.8022746 -3.0417172 0 0 Z M-43.38671875 12.6796875 C-42.09204198 14.73959228 -42.09204198 14.73959228 -40.38671875 16.6796875 C-39.39671875 16.6796875 -38.40671875 16.6796875 -37.38671875 16.6796875 C-37.05671875 15.6896875 -36.72671875 14.6996875 -36.38671875 13.6796875 C-37.5120598 12.32350251 -37.5120598 12.32350251 -40.44921875 12.6171875 C-41.41859375 12.6378125 -42.38796875 12.6584375 -43.38671875 12.6796875 Z " fill="#E57281" transform="translate(58.38671875,146.3203125)"/>
<path d="M0 0 C4.10383604 10.06251324 2.84262599 19.51609348 1 30 C0.34 30 -0.32 30 -1 30 C-1.33 31.98 -1.66 33.96 -2 36 C-2.66 36 -3.32 36 -4 36 C-4.2475 36.556875 -4.495 37.11375 -4.75 37.6875 C-7.54102712 42.85090017 -10.91052217 46.07625742 -16 49 C-16.99 49 -17.98 49 -19 49 C-19 49.66 -19 50.32 -19 51 C-25.81831049 53.59745162 -32.77613341 53.41638909 -40 53 C-41 52 -41 52 -41.6875 48.0625 C-43.77282014 38.48829291 -49.36996415 31.84840311 -57 26 C-56.505 24.515 -56.505 24.515 -56 23 C-54.25 22.375 -54.25 22.375 -52 22 C-40.77861031 19.76635845 -33.45192579 15.71787339 -25.4375 7.3125 C-17.61095646 -0.11268233 -10.56412041 -0.67622392 0 0 Z " fill="#C0D9D7" transform="translate(192,22)"/>
<path d="M0 0 C1.010625 -0.01675781 2.02125 -0.03351563 3.0625 -0.05078125 C6.44156098 0.36710794 8.30341543 1.25635427 11 3.3125 C11.33 4.3025 11.66 5.2925 12 6.3125 C12.99 6.6425 13.98 6.9725 15 7.3125 C15.061875 8.09625 15.12375 8.88 15.1875 9.6875 C15.455625 10.55375 15.72375 11.42 16 12.3125 C18.28981608 13.41767941 18.28981608 13.41767941 21 14.3125 C30.99100218 18.14571963 30.99100218 18.14571963 33.625 23.6875 C35.41262716 28.78774432 35.99586458 33.0718047 33.75 38.125 C31.84430979 40.50711276 30.87228746 41.35507085 28 42.3125 C26.329375 42.498125 26.329375 42.498125 24.625 42.6875 C20.95316372 43.04778886 20.95316372 43.04778886 18.3125 45.25 C9.96059895 50.45024027 -1.5885717 50.17974743 -11 48.3125 C-12.90234375 46.76171875 -12.90234375 46.76171875 -14 45.3125 C-12.53515625 44.20572917 -11.0703125 43.09895833 -9.60546875 41.9921875 C-4.30346504 36.445079 -4.49812707 30.33586329 -4.640625 23.08984375 C-5.20893745 17.1163857 -6.88014948 11.90992604 -10.69921875 7.23046875 C-11.12847656 6.59753906 -11.55773437 5.96460938 -12 5.3125 C-11 2.3125 -11 2.3125 -8.8125 1.14453125 C-5.75203861 0.23914476 -3.1883957 0.01220049 0 0 Z " fill="#B67C6A" transform="translate(187,145.6875)"/>
<path d="M0 0 C0.99 0 1.98 0 3 0 C3 0.66 3 1.32 3 2 C3.55816406 2.09925781 4.11632812 2.19851562 4.69140625 2.30078125 C16.06207999 5.74469089 23.63880343 17.09908052 29 27 C30.55357744 32.79060681 30.77231401 38.59219751 28.9375 44.3125 C25.98172249 48.41244946 22.73885245 50.51811932 17.82421875 51.3828125 C11.16732276 51.72772939 6.3033765 49.63850199 1.15625 45.52734375 C-8.35965466 36.70009009 -12.08360004 25.4869141 -14.875 13.125 C-13.57830023 8.49392938 -10.49961702 6.93980876 -6.578125 4.3828125 C-4.32207317 3.17274833 -2.49999374 2.45560634 0 2 C0 1.34 0 0.68 0 0 Z " fill="#F8E6EF" transform="translate(148,136)"/>
<path d="M0 0 C7.52502491 -0.45150149 14.77901054 0.86407639 22 3 C22.33 3.66 22.66 4.32 23 5 C21.25 7 21.25 7 19 9 C17.68 9 16.36 9 15 9 C15.33 9.99 15.66 10.98 16 12 C16.99 12 17.98 12 19 12 C19.33 12.66 19.66 13.32 20 14 C22.73371527 15.32507596 25.45856296 16.55853297 28.25 17.75 C29.9041215 18.46635055 31.55776499 19.18380586 33.2109375 19.90234375 C34.02788086 20.2566748 34.84482422 20.61100586 35.68652344 20.97607422 C37.69910748 21.86682744 39.68517837 22.79122093 41.6640625 23.75390625 C47.94257411 26.80150495 53.90281753 28.98162944 60.734375 30.45703125 C63 31 63 31 64 32 C66.18019479 32.39666227 68.3696463 32.74315237 70.5625 33.0625 C71.76003906 33.23910156 72.95757812 33.41570312 74.19140625 33.59765625 C75.11824219 33.73042969 76.04507813 33.86320312 77 34 C74.1800106 31.1610495 74.1800106 31.1610495 71.25 28.4375 C70 27 70 27 70 24 C74.20344771 24.57112061 76.96817364 25.99597906 80.5 28.3125 C81.87671875 29.20388672 81.87671875 29.20388672 83.28125 30.11328125 C88.81488157 33.95343074 88.81488157 33.95343074 91 36 C91 37.32 91 38.64 91 40 C86.17661356 42.41169322 79.11024187 40.94634109 74 40 C72.96875 39.62875 71.9375 39.2575 70.875 38.875 C67.62392926 37.88554369 66.17934278 37.85869746 63 39 C61.2925002 40.28062485 59.62626404 41.61767557 58 43 C51.89555559 47.01999998 46.23412492 47.80261824 39 47 C35.83358498 45.94612511 32.93673039 44.57596092 30 43 C29.34 42.67 28.68 42.34 28 42 C28 41.34 28 40.68 28 40 C26.515 39.505 26.515 39.505 25 39 C25 38.34 25 37.68 25 37 C24.34 37 23.68 37 23 37 C18.75490667 30.01613678 17.86230324 25.12410887 18 17 C17.2575 16.87625 16.515 16.7525 15.75 16.625 C13.19858515 16.04513299 11.2732427 15.26291261 9 14 C9 13.34 9 12.68 9 12 C8.46375 11.9175 7.9275 11.835 7.375 11.75 C4.05431254 10.70136186 1.71482642 9.17186114 -1 7 C-1.875 4.25 -1.875 4.25 -2 2 C-1.34 2 -0.68 2 0 2 C0 1.34 0 0.68 0 0 Z " fill="#FCA0AB" transform="translate(2,151)"/>
<path d="M0 0 C7.52502491 -0.45150149 14.77901054 0.86407639 22 3 C22.33 3.66 22.66 4.32 23 5 C21.25 7 21.25 7 19 9 C17.68 9 16.36 9 15 9 C15.33 9.99 15.66 10.98 16 12 C16.99 12 17.98 12 19 12 C19.33 12.66 19.66 13.32 20 14 C22.73371527 15.32507596 25.45856296 16.55853297 28.25 17.75 C29.9041215 18.46635055 31.55776499 19.18380586 33.2109375 19.90234375 C34.02788086 20.2566748 34.84482422 20.61100586 35.68652344 20.97607422 C37.69910748 21.86682744 39.68517837 22.79122093 41.6640625 23.75390625 C47.94257411 26.80150495 53.90281753 28.98162944 60.734375 30.45703125 C63 31 63 31 64 32 C66.18019479 32.39666227 68.3696463 32.74315237 70.5625 33.0625 C71.76003906 33.23910156 72.95757812 33.41570312 74.19140625 33.59765625 C75.11824219 33.73042969 76.04507813 33.86320312 77 34 C74.1800106 31.1610495 74.1800106 31.1610495 71.25 28.4375 C70 27 70 27 70 24 C74.20344771 24.57112061 76.96817364 25.99597906 80.5 28.3125 C81.87671875 29.20388672 81.87671875 29.20388672 83.28125 30.11328125 C88.81488157 33.95343074 88.81488157 33.95343074 91 36 C91 37.32 91 38.64 91 40 C86.21294809 42.39352595 79.06850652 40.99559949 74 40 C72.10121109 39.31250746 70.20384638 38.61923453 68.328125 37.87109375 C65.6263647 36.86020021 62.89353547 36.06038789 60.125 35.25 C46.7272679 31.1825541 33.80812155 25.62157103 21 20 C21 19.34 21 18.68 21 18 C20.13375 17.896875 19.2675 17.79375 18.375 17.6875 C14.83316877 16.96601586 12.15687958 15.72876739 9 14 C9 13.34 9 12.68 9 12 C8.46375 11.9175 7.9275 11.835 7.375 11.75 C4.05431254 10.70136186 1.71482642 9.17186114 -1 7 C-1.875 4.25 -1.875 4.25 -2 2 C-1.34 2 -0.68 2 0 2 C0 1.34 0 0.68 0 0 Z " fill="#F8E4EC" transform="translate(2,151)"/>
<path d="M0 0 C10.85215926 3.3042896 21.49466272 6.71767168 32 11 C34.5905227 12.02502697 37.18154569 13.04875254 39.7734375 14.0703125 C41.90286298 14.95944104 43.94993177 15.94220224 46 17 C46 17.66 46 18.32 46 19 C46.66 19 47.32 19 48 19 C48.061875 19.78375 48.12375 20.5675 48.1875 21.375 C48.455625 22.24125 48.72375 23.1075 49 24 C51.47130918 25.15521502 51.47130918 25.15521502 54 26 C54.495 27.485 54.495 27.485 55 29 C47.12610841 28.64707441 40.32696832 27.87684646 33 25 C31.82953125 24.5875 30.6590625 24.175 29.453125 23.75 C19.5576264 20.23734934 10.30394259 15.84853346 1 11 C-0.33163267 10.3299428 -1.66397856 9.66126314 -3 9 C-2.5020163 5.26512223 -2.12508244 3.18762365 0 0 Z " fill="#FCA0AB" transform="translate(24,156)"/>
<path d="M0 0 C-0.66 0.33 -1.32 0.66 -2 1 C-2 1.66 -2 2.32 -2 3 C-2.66 3 -3.32 3 -4 3 C-4.433125 3.86625 -4.433125 3.86625 -4.875 4.75 C-5.91666667 6.83333333 -6.95833333 8.91666667 -8 11 C-8.66 11 -9.32 11 -10 11 C-10.20625 11.66 -10.4125 12.32 -10.625 13 C-13.62419949 19.54370798 -18.15169529 24.84120554 -24 29 C-24.99 29 -25.98 29 -27 29 C-27 29.66 -27 30.32 -27 31 C-28.32 31 -29.64 31 -31 31 C-31 31.66 -31 32.32 -31 33 C-32.32 33 -33.64 33 -35 33 C-35 35.31 -35 37.62 -35 40 C-35.33 40 -35.66 40 -36 40 C-36.08636719 39.443125 -36.17273438 38.88625 -36.26171875 38.3125 C-37.24812036 32.95516279 -38.85483756 29.09495783 -41.9765625 24.62890625 C-43 23 -43 23 -43 21 C-42.25234375 20.89042969 -41.5046875 20.78085937 -40.734375 20.66796875 C-39.74953125 20.50941406 -38.7646875 20.35085937 -37.75 20.1875 C-36.77546875 20.03667969 -35.8009375 19.88585937 -34.796875 19.73046875 C-31.85954628 18.96331725 -30.33110223 17.88241663 -28 16 C-27.34 16 -26.68 16 -26 16 C-26 15.34 -26 14.68 -26 14 C-24.02053408 12.63636792 -22.0180755 11.30581356 -20 10 C-18.97980427 9.0206121 -17.97850195 8.02104551 -17 7 C-12.06089057 2.60968051 -6.80286493 -0.61844227 0 0 Z " fill="#86C1C5" transform="translate(187,34)"/>
<path d="M0 0 C-2.24507062 5.5290835 -6.77228891 7.58982151 -12 10 C-16.59800755 11.46832048 -21.23267261 12.31151856 -26 13 C-26.83611816 13.1242334 -27.67223633 13.2484668 -28.53369141 13.37646484 C-31.24846582 13.76316949 -33.96523583 14.10791386 -36.6875 14.4375 C-37.56132324 14.55512695 -38.43514648 14.67275391 -39.33544922 14.79394531 C-41.61957401 15.03683243 -43.71313915 15.21603036 -46 15 C-48.08203125 13.22265625 -48.08203125 13.22265625 -49 11 C-49 10.01 -49 9.02 -49 8 C-48.34 8 -47.68 8 -47 8 C-47 6.68 -47 5.36 -47 4 C-42.12903418 2.44018319 -37.93891594 1.72723682 -32.78125 1.62109375 C-32.11967896 1.60409927 -31.45810791 1.5871048 -30.77648926 1.56959534 C-28.68442055 1.51700979 -26.59236326 1.47644456 -24.5 1.4375 C-22.40773666 1.39323593 -20.3156071 1.34626114 -18.22351074 1.29469299 C-16.3255678 1.24868322 -14.42743088 1.2108885 -12.52929688 1.17358398 C-8.32985283 0.96703966 -4.1886249 0 0 0 Z " fill="#C1D9D8" transform="translate(169,18)"/>
<path d="M0 0 C3.75212276 2.01502889 5.63644095 3.45466142 8 7 C8 12.27244454 4.45789132 15.43220015 1 19 C0.236875 19.804375 -0.52625 20.60875 -1.3125 21.4375 C-5.17283651 23.68188169 -8.63785273 23.3421292 -13 23 C-16.14608961 18.18255028 -18.05799723 14.92478451 -17 9 C-12.78184236 2.48102911 -8.06562909 -1.26549568 0 0 Z " fill="#F7F5F6" transform="translate(109,81)"/>
<path d="M0 0 C0.99 0 1.98 0 3 0 C3 0.66 3 1.32 3 2 C3.57234375 2.11214844 4.1446875 2.22429687 4.734375 2.33984375 C7.24789112 3.07223034 9.05930543 4.13854853 11.25 5.5625 C11.95640625 6.01753906 12.6628125 6.47257813 13.390625 6.94140625 C14.18726563 7.46541016 14.18726563 7.46541016 15 8 C12.75362474 12.49275053 9.79620696 14.92006239 5.6875 17.625 C5.13126953 18.0065625 4.57503906 18.388125 4.00195312 18.78125 C-5.20823006 25 -5.20823006 25 -10 25 C-10.33 25.99 -10.66 26.98 -11 28 C-15.11428571 14.45714286 -15.11428571 14.45714286 -14 10 C-9.95851134 6.25202728 -5.50346544 3.002968 0 2 C0 1.34 0 0.68 0 0 Z " fill="#B490A7" transform="translate(148,136)"/>
<path d="M0 0 C2.95817972 2.44371368 3.58824483 4.21185245 4 8 C4.43183627 13.69813227 4.47043607 18.18616932 1 23 C-3.52401367 26.43825039 -7.03781058 27.66272018 -12.72265625 27.390625 C-17.67174524 26.54172466 -21.66912974 24.49722904 -25 20.75 C-25.495 19.88375 -25.495 19.88375 -26 19 C-24.75539217 18.32332002 -23.50403104 17.65905281 -22.25 17 C-21.20585937 16.443125 -21.20585937 16.443125 -20.140625 15.875 C-18 15 -18 15 -14 15 C-14 14.34 -14 13.68 -14 13 C-12.61087133 12.05132677 -11.21646525 11.10948505 -9.796875 10.20703125 C-7.82716629 8.88390083 -6.01087702 7.45572508 -4.1875 5.9375 C-3.60355469 5.45152344 -3.01960938 4.96554688 -2.41796875 4.46484375 C-0.74088054 2.9436631 -0.74088054 2.9436631 0 0 Z " fill="#B38FA7" transform="translate(174,160)"/>
<path d="M0 0 C2.88098296 1.7681974 5.60732878 3.60064534 8 6 C8 6.66 8 7.32 8 8 C4.1263124 8.02519409 0.25265815 8.04308675 -3.62109375 8.05493164 C-5.56772545 8.06228369 -7.51433456 8.07500578 -9.4609375 8.08789062 C-33.11180958 8.14822448 -33.11180958 8.14822448 -40 5 C-32.42032841 -6.36950738 -11.0770548 -5.25723617 0 0 Z " fill="#BFD9D8" transform="translate(174,3)"/>
<path d="M0 0 C5.51419473 3.35515805 9.46985274 7.043195 12.61328125 12.6796875 C12.61328125 13.6696875 12.61328125 14.6596875 12.61328125 15.6796875 C11.97261719 15.41929687 11.33195312 15.15890625 10.671875 14.890625 C-1.17217693 10.20140904 -13.05767289 5.91782189 -25.38671875 2.6796875 C-21.71127303 -4.67120393 -6.37733727 -2.4862053 0 0 Z " fill="#E16E7E" transform="translate(58.38671875,146.3203125)"/>
<path d="M0 0 C1.27617188 0.00483398 1.27617188 0.00483398 2.578125 0.00976562 C3.46757813 0.01814453 4.35703125 0.02652344 5.2734375 0.03515625 C6.170625 0.03966797 7.0678125 0.04417969 7.9921875 0.04882812 C10.21100398 0.06063034 12.42968768 0.0770947 14.6484375 0.09765625 C14.6484375 0.42765625 14.6484375 0.75765625 14.6484375 1.09765625 C12.6684375 1.42765625 10.6884375 1.75765625 8.6484375 2.09765625 C8.6484375 2.42765625 8.6484375 2.75765625 8.6484375 3.09765625 C7.34132813 3.11892578 7.34132813 3.11892578 6.0078125 3.140625 C-1.80331666 3.45340831 -7.86158373 4.6646894 -14.92578125 8.0390625 C-17.3515625 9.09765625 -17.3515625 9.09765625 -20.3515625 9.09765625 C-20.3515625 9.75765625 -20.3515625 10.41765625 -20.3515625 11.09765625 C-21.71113336 11.96917603 -23.07127779 12.83980874 -24.43359375 13.70703125 C-30.76476328 18.29745152 -36.06058386 24.00939456 -39.3515625 31.09765625 C-39.79628906 31.98904297 -39.79628906 31.98904297 -40.25 32.8984375 C-43.94768704 41.63379908 -43.61654478 53.96466317 -41.3515625 63.09765625 C-42.8365625 64.08765625 -42.8365625 64.08765625 -44.3515625 65.09765625 C-44.3515625 63.44765625 -44.3515625 61.79765625 -44.3515625 60.09765625 C-45.0115625 60.09765625 -45.6715625 60.09765625 -46.3515625 60.09765625 C-47.29741097 43.82555941 -45.54831937 31.6017981 -34.8671875 18.5390625 C-33.3515625 17.09765625 -33.3515625 17.09765625 -31.3515625 17.09765625 C-31.3515625 16.43765625 -31.3515625 15.77765625 -31.3515625 15.09765625 C-27.89002404 12.09765625 -27.89002404 12.09765625 -25.3515625 12.09765625 C-25.0215625 11.10765625 -24.6915625 10.11765625 -24.3515625 9.09765625 C-19.49980447 5.54547626 -13.91262876 3.40894972 -8.19921875 1.67578125 C-2.78419162 -0.01856128 -2.78419162 -0.01856128 0 0 Z " fill="#E08F99" transform="translate(100.3515625,42.90234375)"/>
<path d="M0 0 C3.34999714 0.87737167 6.56837493 2.0438431 9.8125 3.25 C10.69744141 3.5699292 11.58238281 3.8898584 12.49414062 4.21948242 C27.5039899 9.67949484 27.5039899 9.67949484 34 13 C34 14.98 34 16.96 34 19 C31.21963178 18.38952785 29.34054464 17.65759049 26.75 16.3125 C16.25866064 10.97924029 5.49193706 7.54183388 -6.0859375 5.640625 C-9 5 -9 5 -11 3 C-7.41826981 -0.43846098 -4.85137986 -0.36361427 0 0 Z " fill="#FCA0AB" transform="translate(38,149)"/>
<path d="M0 0 C2.70785619 1.38820476 3.90686917 2.64522782 6 5 C6.625 7.625 6.625 7.625 6 10 C3.06931634 12.75165999 0.98752161 13.43142146 -3 13.4375 C-6.34170863 13.3241382 -7.7347052 13.16423011 -10.625 11.375 C-12.41142544 8.28935606 -12.59713581 6.50817286 -12 3 C-8.96667299 -0.79165877 -4.51537397 -0.92556516 0 0 Z " fill="#976054" transform="translate(206,165)"/>
<path d="M0 0 C4.90534636 1.30141842 9.36002255 2.94770228 14 5 C14.99 5.33 15.98 5.66 17 6 C17 6.66 17 7.32 17 8 C17.969375 8.12375 18.93875 8.2475 19.9375 8.375 C24.34815777 8.99863809 28.66477759 9.98746506 33 11 C32.67 11.99 32.34 12.98 32 14 C25.86225153 16.31689843 18.87833859 15.68353627 13 13.0625 C11.6572721 12.39353378 10.32183893 11.70934891 9 11 C8.34 10.67 7.68 10.34 7 10 C7 9.34 7 8.68 7 8 C6.01 7.67 5.02 7.34 4 7 C4 6.34 4 5.68 4 5 C3.34 5 2.68 5 2 5 C1.34 3.35 0.68 1.7 0 0 Z " fill="#FDA0AB" transform="translate(23,183)"/>
<path d="M0 0 C2.31 0.66 4.62 1.32 7 2 C7 2.66 7 3.32 7 4 C7.78375 4.0825 8.5675 4.165 9.375 4.25 C14.18875071 5.24594842 18.47984436 7.09993458 23 9 C28.95396722 11.49131257 34.69167427 13.59814984 41 15 C39.35 16.32 37.7 17.64 36 19 C35.505 18.01 35.505 18.01 35 17 C33.10941795 16.60569359 33.10941795 16.60569359 30.875 16.5 C26.6782113 16.13068259 23.00781193 15.27908891 19 14 C19 13.34 19 12.68 19 12 C18.45472656 11.90203125 17.90945312 11.8040625 17.34765625 11.703125 C11.69372067 10.58200273 5.79991704 9.33535438 1 6 C-0.0625 2.75 -0.0625 2.75 0 0 Z " fill="#E5707F" transform="translate(21,177)"/>
<path d="M0 0 C2.4375 1.625 2.4375 1.625 4 4 C4.60975382 7.65852292 4.44543026 9.30512879 2.4375 12.4375 C0 14 0 14 -3.5625 13.9375 C-7 13 -7 13 -8.9375 11.875 C-10.64550843 8.86086748 -10.36204814 6.37911601 -10 3 C-7.7773391 -1.05308751 -4.20075589 -0.5158823 0 0 Z " fill="#D9D0D3" transform="translate(80,90)"/>
<path d="M0 0 C4.30169173 1.40272556 4.30169173 1.40272556 5.875 3.9375 C6.29116519 7.19746064 6.1516188 9.28053035 4.875 12.3125 C2.16467961 14.51463531 0.16616834 14.45095108 -3.25 14.25 C-5.125 13.9375 -5.125 13.9375 -7.125 12.875 C-8.75397258 9.71886563 -8.61320905 7.41598951 -8.125 3.9375 C-5.45043116 0.79094842 -4.15592269 -0.08311845 0 0 Z " fill="#E1D9DB" transform="translate(118.125,61.0625)"/>
<path d="M0 0 C0.33 0 0.66 0 1 0 C1.08333357 4.8333472 0.95261487 9.23692563 0 14 C-0.66 14 -1.32 14 -2 14 C-2.33 15.98 -2.66 17.96 -3 20 C-4.32 20 -5.64 20 -7 20 C-7 20.66 -7 21.32 -7 22 C-9.70879335 23.35439668 -12.00933268 23.06501451 -15 23 C-12.89186724 19.36166495 -10.57693063 15.99366138 -8.0625 12.625 C-5.05746805 8.5352788 -2.38654005 4.4747626 0 0 Z " fill="#87C0C4" transform="translate(193,38)"/>
<path d="M0 0 C0.66 0 1.32 0 2 0 C1.03585637 2.59577131 0.05668694 4.91127261 -1.4375 7.25 C-7.23871325 17.46013532 -7.81833103 30.63576196 -5 42 C-5.99 42.66 -6.98 43.32 -8 44 C-8 42.35 -8 40.7 -8 39 C-8.66 39 -9.32 39 -10 39 C-10.80156259 25.21015477 -10.22605979 13.73052745 -1.921875 2.0859375 C-0.97054687 1.05339844 -0.97054687 1.05339844 0 0 Z " fill="#F19AA5" transform="translate(64,64)"/>
<path d="M0 0 C0.99 0 1.98 0 3 0 C3 0.66 3 1.32 3 2 C4.175625 2.37125 5.35125 2.7425 6.5625 3.125 C11.44589738 4.75025569 16.2013049 6.64881045 20.96777344 8.58740234 C24.44480749 9.99576621 27.9317695 11.35826859 31.453125 12.65234375 C32.18136475 12.92006592 32.90960449 13.18778809 33.65991211 13.46362305 C35.07046859 13.97892331 36.48269673 14.4896756 37.89672852 14.99536133 C40.78391483 16.05124037 42.79850088 16.79850088 45 19 C31.4026743 17.73513249 18.16525998 12.01789751 6.4453125 5.26953125 C4.25619373 4.13300793 2.40785491 3.46477199 0 3 C0 2.01 0 1.02 0 0 Z " fill="#E97D8C" transform="translate(20,169)"/>
<path d="M0 0 C5.95516951 1.4068405 11.70914816 3.15384685 17.5 5.125 C18.73363281 5.54072266 18.73363281 5.54072266 19.9921875 5.96484375 C21.99572877 6.6404565 23.99800011 7.31983337 26 8 C26 7.01 26 6.02 26 5 C28.875 5.75 28.875 5.75 32 7 C33.1953125 9.078125 33.1953125 9.078125 34 11 C26.14016563 10.64770449 19.32482354 9.85693289 12 7 C11.02289063 6.67644531 10.04578125 6.35289062 9.0390625 6.01953125 C8.03617188 5.68308594 7.03328125 5.34664062 6 5 C4.6078125 4.5359375 4.6078125 4.5359375 3.1875 4.0625 C2.465625 3.711875 1.74375 3.36125 1 3 C0.67 2.01 0.34 1.02 0 0 Z " fill="#EA8291" transform="translate(45,174)"/>
<path d="M0 0 C3.5625 0.3125 3.5625 0.3125 5.5 1.5 C6.5625 3.3125 6.5625 3.3125 6.5625 8.3125 C2.2725 7.6525 -2.0175 6.9925 -6.4375 6.3125 C-4.97238372 0.45203488 -4.97238372 0.45203488 0 0 Z " fill="#EEDCE3" transform="translate(111.4375,30.6875)"/>
<path d="M0 0 C0.46192125 4.92715996 -1.1724717 8.50732625 -3 13 C-4.9375 12.625 -4.9375 12.625 -7 12 C-8.42041821 9.15916359 -8.31452272 7.14522722 -8 4 C-5.3248853 0.36948719 -4.64716758 0 0 0 Z " fill="#F5E4EC" transform="translate(51,74)"/>
<path d="M0 0 C0.763125 0.20625 1.52625 0.4125 2.3125 0.625 C2.6425 2.275 2.9725 3.925 3.3125 5.625 C1.625 7.1875 1.625 7.1875 -0.6875 8.625 C-3.4375 8.3125 -3.4375 8.3125 -5.6875 7.625 C-5.875 4.75 -5.875 4.75 -5.6875 1.625 C-2.6875 -0.375 -2.6875 -0.375 0 0 Z " fill="#654147" transform="translate(104.6875,86.375)"/>
<path d="M0 0 C1 1 1 1 1.1875 3.4375 C1 6 1 6 -1 8 C-5.55555556 7.44444444 -5.55555556 7.44444444 -7 6 C-7.04080783 4.00041636 -7.04254356 1.99954746 -7 0 C-4.31633121 -1.3418344 -2.84719317 -0.73004953 0 0 Z " fill="#613A40" transform="translate(120,65)"/>
<path d="M0 0 C3 0.125 3 0.125 4 1.125 C4.04080783 3.12458364 4.04254356 5.12545254 4 7.125 C-1.75 8.25 -1.75 8.25 -4 7.125 C-4.04254356 5.12545254 -4.04080783 3.12458364 -4 1.125 C-3 0.125 -3 0.125 0 0 Z " fill="#5C353B" transform="translate(77,92.875)"/>
<path d="M0 0 C5.36170213 0.59574468 5.36170213 0.59574468 7.875 2.1875 C9.56589731 4.91172344 9.38457172 6.85933099 9 10 C7.625 12.375 7.625 12.375 6 14 C5.34 14 4.68 14 4 14 C4.33 11.03 4.66 8.06 5 5 C3.7625 4.319375 3.7625 4.319375 2.5 3.625 C1.675 3.08875 0.85 2.5525 0 2 C0 1.34 0 0.68 0 0 Z " fill="#E0D8DB" transform="translate(115,61)"/>
<path d="M0 0 C2.68777802 -0.0544207 5.37443212 -0.09387266 8.0625 -0.125 C8.81466797 -0.14175781 9.56683594 -0.15851562 10.34179688 -0.17578125 C15.29327709 -0.21865121 19.30414451 0.41600625 24 2 C23.67 2.99 23.34 3.98 23 5 C20.20681908 4.49214892 17.58346497 3.86670879 14.875 3 C10.03072464 1.56068094 5.01891956 1.34488055 0 1 C0 0.67 0 0.34 0 0 Z " fill="#F29BA6" transform="translate(98,44)"/>
<path d="M0 0 C2.475 0.99 2.475 0.99 5 2 C4.67 3.65 4.34 5.3 4 7 C2.35 7 0.7 7 -1 7 C-1.04254356 5.00045254 -1.04080783 2.99958364 -1 1 C-0.67 0.67 -0.34 0.34 0 0 Z " fill="#ECE578" transform="translate(18,108)"/>
<path d="M0 0 C0.33 0 0.66 0 1 0 C1.06058594 1.09699219 1.12117188 2.19398437 1.18359375 3.32421875 C1.26804498 4.77865654 1.35269066 6.23308305 1.4375 7.6875 C1.47681641 8.40873047 1.51613281 9.12996094 1.55664062 9.87304688 C1.78185678 13.66707282 2.12839305 17.28651492 3 21 C2.01 21.66 1.02 22.32 0 23 C0 21.35 0 19.7 0 18 C-0.66 18 -1.32 18 -2 18 C-2 16.35 -2 14.7 -2 13 C-1.67 13 -1.34 13 -1 13 C-0.67 8.71 -0.34 4.42 0 0 Z " fill="#D88993" transform="translate(56,85)"/>
<path d="M0 0 C1.27617188 0.00483398 1.27617188 0.00483398 2.578125 0.00976562 C3.46757813 0.01814453 4.35703125 0.02652344 5.2734375 0.03515625 C6.170625 0.03966797 7.0678125 0.04417969 7.9921875 0.04882812 C10.21100398 0.06063034 12.42968768 0.0770947 14.6484375 0.09765625 C14.6484375 0.42765625 14.6484375 0.75765625 14.6484375 1.09765625 C12.6684375 1.42765625 10.6884375 1.75765625 8.6484375 2.09765625 C8.6484375 2.42765625 8.6484375 2.75765625 8.6484375 3.09765625 C6.52371174 3.15152254 4.39860098 3.19038696 2.2734375 3.22265625 C0.49839844 3.25746094 0.49839844 3.25746094 -1.3125 3.29296875 C-4.3515625 3.09765625 -4.3515625 3.09765625 -6.3515625 1.09765625 C-4.00303722 -0.07660639 -2.61382185 -0.01742548 0 0 Z " fill="#CE828C" transform="translate(100.3515625,42.90234375)"/>
<path d="M0 0 C5.75 -0.125 5.75 -0.125 8 1 C7.67 2.32 7.34 3.64 7 5 C4.69 4.67 2.38 4.34 0 4 C0 2.68 0 1.36 0 0 Z " fill="#986155" transform="translate(188,184)"/>
<path d="M0 0 C2.875 0.75 2.875 0.75 6 2 C6.66 3.32 7.32 4.64 8 6 C5.03 5.67 2.06 5.34 -1 5 C-0.67 3.35 -0.34 1.7 0 0 Z " fill="#8A6B7F" transform="translate(71,179)"/>
<path d="M0 0 C3.375 0.3125 3.375 0.3125 7 1 C9.29013653 4.4352048 9.17842973 5.985331 9 10 C8.34 10 7.68 10 7 10 C6.79375 9.05125 6.5875 8.1025 6.375 7.125 C5.29166667 3.70833333 5.29166667 3.70833333 1.875 2.625 C0.92625 2.41875 -0.0225 2.2125 -1 2 C-0.67 1.34 -0.34 0.68 0 0 Z " fill="#EEEAEB" transform="translate(75,90)"/>
<path d="M0 0 C3.21634835 0.9062639 5.56497612 2.02310311 8.0625 4.3125 C2.92746656 3.67062082 -1.9318454 2.62977753 -6.9375 1.3125 C-3.9375 -0.6875 -3.9375 -0.6875 0 0 Z " fill="#ED8997" transform="translate(56.9375,183.6875)"/>
<path d="M0 0 C1.65 0.33 3.3 0.66 5 1 C5 2.32 5 3.64 5 5 C3.02 5 1.04 5 -1 5 C-0.67 3.35 -0.34 1.7 0 0 Z " fill="#9B6356" transform="translate(187,152)"/>
<path d="M0 0 C1.98 0.495 1.98 0.495 4 1 C3.67 2.65 3.34 4.3 3 6 C1.68 5.67 0.36 5.34 -1 5 C-0.67 3.35 -0.34 1.7 0 0 Z " fill="#EAD7E0" transform="translate(99,202)"/>
<path d="M0 0 C0.33 0 0.66 0 1 0 C1.33 5.28 1.66 10.56 2 16 C0.68 16.33 -0.64 16.66 -2 17 C-1.76990234 16.21882813 -1.76990234 16.21882813 -1.53515625 15.421875 C-0.86017489 12.36721485 -0.65588882 9.36984029 -0.4375 6.25 C-0.35371094 5.07953125 -0.26992187 3.9090625 -0.18359375 2.703125 C-0.12300781 1.81109375 -0.06242188 0.9190625 0 0 Z " fill="#9B6558" transform="translate(183,167)"/>
<path d="M0 0 C1.65 0 3.3 0 5 0 C5 1.65 5 3.3 5 5 C3.35 4.67 1.7 4.34 0 4 C0 2.68 0 1.36 0 0 Z " fill="#F2EC78" transform="translate(204,90)"/>
<path d="M0 0 C1.1446875 0.3403125 1.1446875 0.3403125 2.3125 0.6875 C-0.6875 2.6875 -0.6875 2.6875 -2.6875 2.6875 C-3.0175 4.3375 -3.3475 5.9875 -3.6875 7.6875 C-4.3475 7.6875 -5.0075 7.6875 -5.6875 7.6875 C-5.91482116 4.88387237 -6.02831872 3.22563483 -4.5 0.8125 C-2.6875 -0.3125 -2.6875 -0.3125 0 0 Z " fill="#ECE8E9" transform="translate(115.6875,62.3125)"/>
<path d="M0 0 C1.98 0.66 3.96 1.32 6 2 C6 2.33 6 2.66 6 3 C4.824375 3.12375 4.824375 3.12375 3.625 3.25 C0.85250896 3.72806339 0.85250896 3.72806339 -0.3125 6.0625 C-0.6528125 7.0215625 -0.6528125 7.0215625 -1 8 C-1.66 6.35 -2.32 4.7 -3 3 C-2.01 2.01 -1.02 1.02 0 0 Z " fill="#D0C4C7" transform="translate(73,90)"/>
<path d="M0 0 C0 1.65 0 3.3 0 5 C-0.33 3.68 -0.66 2.36 -1 1 C-3.31 2.65 -5.62 4.3 -8 6 C-6.15596224 0.86303767 -5.73213298 0 0 0 Z " fill="#D0B9C0" transform="translate(51,74)"/>
<path d="M0 0 C2 3.75 2 3.75 2 6 C2.66 6.33 3.32 6.66 4 7 C3.01 7.33 2.02 7.66 1 8 C-1 6 -1 6 -1.1875 3.4375 C-1 1 -1 1 0 0 Z " fill="#EEEBEC" transform="translate(71,94)"/>
<path d="M0 0 C-1.125 1.5 -1.125 1.5 -3 3 C-6.1875 3.1875 -6.1875 3.1875 -9 3 C-6.38997624 -0.48003168 -4.1689578 -0.27793052 0 0 Z " fill="#EF99A4" transform="translate(96,45)"/>
</svg>
